#N canvas 863 249 450 526 10;
#X floatatom 21 48 5 0 0 0 - - -;
#X obj 21 157 outlet;
#X floatatom 21 110 5 0 0 0 - - -;
#X obj 23 135 tgl 15 0 empty empty empty 17 7 0 10 -262144 -1 -1 0
1;
#X obj 20 26 keyname;
#X obj 20 89 &&;
#X obj 20 67 == 1;
#X obj 70 26 key;
#X floatatom 62 48 5 0 0 0 - - -;
#X obj 52 69 == 119;
#X floatatom 24 204 5 0 0 0 - - -;
#X obj 24 313 outlet;
#X floatatom 24 266 5 0 0 0 - - -;
#X obj 26 291 tgl 15 0 empty empty empty 17 7 0 10 -262144 -1 -1 0
1;
#X obj 23 182 keyname;
#X obj 23 245 &&;
#X obj 23 223 == 1;
#X obj 73 182 key;
#X floatatom 65 204 5 0 0 0 - - -;
#X obj 57 226 == 97;
#X floatatom 25 359 5 0 0 0 - - -;
#X obj 25 468 outlet;
#X floatatom 25 421 5 0 0 0 - - -;
#X obj 27 446 tgl 15 0 empty empty empty 17 7 0 10 -262144 -1 -1 0
1;
#X obj 24 337 keyname;
#X obj 24 400 &&;
#X obj 24 378 == 1;
#X obj 74 337 key;
#X floatatom 66 359 5 0 0 0 - - -;
#X floatatom 28 515 5 0 0 0 - - -;
#X obj 28 624 outlet;
#X floatatom 28 577 5 0 0 0 - - -;
#X obj 30 602 tgl 15 0 empty empty empty 17 7 0 10 -262144 -1 -1 0
1;
#X obj 27 493 keyname;
#X obj 27 556 &&;
#X obj 27 534 == 1;
#X obj 77 493 key;
#X floatatom 69 515 5 0 0 0 - - -;
#X obj 56 380 == 115;
#X obj 61 537 == 100;
#X floatatom 29 671 5 0 0 0 - - -;
#X obj 29 780 outlet;
#X floatatom 29 733 5 0 0 0 - - -;
#X obj 31 758 tgl 15 0 empty empty empty 17 7 0 10 -262144 -1 -1 0
1;
#X obj 28 649 keyname;
#X obj 28 712 &&;
#X obj 28 690 == 1;
#X obj 78 649 key;
#X floatatom 70 671 5 0 0 0 - - -;
#X floatatom 32 827 5 0 0 0 - - -;
#X obj 32 936 outlet;
#X floatatom 32 889 5 0 0 0 - - -;
#X obj 34 914 tgl 15 0 empty empty empty 17 7 0 10 -262144 -1 -1 0
1;
#X obj 31 805 keyname;
#X obj 31 868 &&;
#X obj 31 846 == 1;
#X obj 81 805 key;
#X floatatom 73 827 5 0 0 0 - - -;
#X obj 60 693 == 102;
#X obj 66 849 == 103;
#X floatatom 189 252 5 0 0 0 - - -;
#X obj 189 361 outlet;
#X floatatom 189 314 5 0 0 0 - - -;
#X obj 191 339 tgl 15 0 empty empty empty 17 7 0 10 -262144 -1 -1 0
1;
#X obj 188 230 keyname;
#X obj 188 293 &&;
#X obj 188 271 == 1;
#X obj 238 230 key;
#X floatatom 230 252 5 0 0 0 - - -;
#X obj 222 275 == 32;
#X text 193 208 SPACEBAR;
#X text 107 48 W;
#X text 112 208 A;
#X text 111 360 S;
#X text 118 528 D;
#X text 116 673 F;
#X text 116 827 G;
#X connect 0 0 6 0;
#X connect 2 0 3 0;
#X connect 3 0 1 0;
#X connect 4 0 0 0;
#X connect 5 0 2 0;
#X connect 6 0 5 0;
#X connect 7 0 8 0;
#X connect 8 0 9 0;
#X connect 9 0 5 1;
#X connect 10 0 16 0;
#X connect 12 0 13 0;
#X connect 13 0 11 0;
#X connect 14 0 10 0;
#X connect 15 0 12 0;
#X connect 16 0 15 0;
#X connect 17 0 18 0;
#X connect 18 0 19 0;
#X connect 19 0 15 1;
#X connect 20 0 26 0;
#X connect 22 0 23 0;
#X connect 23 0 21 0;
#X connect 24 0 20 0;
#X connect 25 0 22 0;
#X connect 26 0 25 0;
#X connect 27 0 28 0;
#X connect 28 0 38 0;
#X connect 29 0 35 0;
#X connect 31 0 32 0;
#X connect 32 0 30 0;
#X connect 33 0 29 0;
#X connect 34 0 31 0;
#X connect 35 0 34 0;
#X connect 36 0 37 0;
#X connect 37 0 39 0;
#X connect 38 0 25 1;
#X connect 39 0 34 1;
#X connect 40 0 46 0;
#X connect 42 0 43 0;
#X connect 43 0 41 0;
#X connect 44 0 40 0;
#X connect 45 0 42 0;
#X connect 46 0 45 0;
#X connect 47 0 48 0;
#X connect 48 0 58 0;
#X connect 49 0 55 0;
#X connect 51 0 52 0;
#X connect 52 0 50 0;
#X connect 53 0 49 0;
#X connect 54 0 51 0;
#X connect 55 0 54 0;
#X connect 56 0 57 0;
#X connect 57 0 59 0;
#X connect 58 0 45 1;
#X connect 59 0 54 1;
#X connect 60 0 66 0;
#X connect 62 0 63 0;
#X connect 63 0 61 0;
#X connect 64 0 60 0;
#X connect 65 0 62 0;
#X connect 66 0 65 0;
#X connect 67 0 68 0;
#X connect 68 0 69 0;
#X connect 69 0 65 1;
